PathFileType	4	(X/Y/Z)	C:/Users/beibeiliu/ov580/test_trc\sequence.32_training_dense_left.trc
DataRate	CameraRate	NumFrames	NumMarkers	Units	OrigDataRate	OrigDataStartFrame	OrigNumFrames
120	120	9	19	mm	120	1	310
Frame#	Time	ThumbCMC			ThumbMCP			ThumbIP			ThumbTip			IndexMCP			IndexPIP			IndexTip			MiddleMCP			MiddlePIP			MiddleTip			RingMCP			RingPIP			RingTip			PinkyMCP			PinkyPIP			PinkyTip			BackHand1			BackHand2			BackHand3	
		X0	Y0	Z0	X1	Y1	Z1	X2	Y2	Z2	X3	Y3	Z3	X4	Y4	Z4	X5	Y5	Z5	X6	Y6	Z6	X7	Y7	Z7	X8	Y8	Z8	X9	Y9	Z9	X10	Y10	Z10	X11	Y11	Z11	X12	Y12	Z12	X13	Y13	Z13	X14	Y14	Z14	X15	Y15	Z15	X16	Y16	Z16	X17	Y17	Z17	X18	Y18	Z18	
0	0	-281.003	3.36056	34.203	-288.031	16.9504	7.04096	-290.2	20.7446	-18.3973	-272.753	18.7192	-43.275	-280.109	-14.8107	-28.7239	-271.891	11.1752	-35.6599	-264.306	12.8526	-2.60977	-261.98	-18.7458	-35.3282	-254.539	9.24228	-44.3092	-249.775	22.1357	-14.6246	-244.481	-16.5686	-33.9359	-242.735	7.98397	-34.4485	-244.28	12.9844	-5.97068	-221.394	-33.3455	-22.6474	-219.536	-32.2978	-38.1034	-220.213	-32.608	-59.8853	-243.973	-37.9932	13.9688	-239.096	-30.3918	44.7199	-266.688	-29.3472	30.8522	
1	0.00833333	-278.903	1.56047	32.5735	-288.439	15.2344	6.8764	-285.816	16.5538	-15.993	-273.059	17.904	-40.9034	-278.502	-15.1315	-29.6948	-267.52	11.8195	-33.777	-262.211	10.3678	-2.70939	-261.637	-18.3474	-37.0819	-254.964	6.09149	-45.5978	-248.728	20.5947	-14.4342	-239.062	-19.271	-32.4954	-242.458	7.29159	-32.9503	-244.401	10.377	-0.780754	-223.578	-32.9339	-18.4388	-218.53	-32.6688	-42.7405	-217.436	-34.117	-58.1212	-240.265	-37.4678	17.3647	-240.37	-32.9215	43.1038	-267.036	-29.5717	29.3934	
2	0.0166667	-277.701	2.44855	34.6605	-286.37	15.006	10.2463	-287.782	17.5103	-19.2286	-276.056	18.1076	-36.4101	-281.562	-10.8893	-31.1947	-268.143	9.72829	-34.9236	-265.349	14.3606	-4.95483	-259.277	-21.7938	-34.3995	-253.894	5.81984	-44.7727	-250.85	20.8558	-16.5304	-243.619	-20.2706	-29.977	-241.706	9.53266	-29.3059	-242.484	10.4774	-1.62496	-221.958	-34.2571	-19.3727	-218.354	-31.9036	-40.0295	-218.906	-30.8326	-57.8595	-239.693	-38.6918	17.5602	-240.43	-31.561	42.9387	-264.676	-29.0398	32.2588	
3	0.025	-281.103	1.90463	30.8053	-285.225	13.4166	7.80104	-286.824	16.7596	-16.4698	-277.905	19.0977	-36.3822	-278.585	-12.8223	-30.8652	-269.804	13.4174	-32.9287	-260.591	12.5814	-7.77824	-260.929	-21.9339	-32.7155	-252.368	7.1703	-43.4649	-248.122	18.9892	-14.8011	-243.317	-19.0316	-31.8352	-239.915	8.51487	-30.5673	-243.477	13.0893	-6.40332	-226.012	-32.94	-17.6587	-222.678	-32.7031	-39.5714	-218.732	-32.3576	-57.867	-241.341	-38.048	15.0673	-236.944	-33.5738	42.0665	-266.519	-29.8854	29.998	
4	0.0333333	-275.928	1.27052	34.4185	-286.119	12.9161	6.33252	-289.227	18.1672	-15.522	-278.35	19.0416	-39.2938	-281.261	-14.399	-28.2127	-270.213	10.0669	-36.5914	-264.276	15.7455	-6.31155	-262.094	-19.3036	-37.6708	-254.198	9.31254	-41.3905	-250.019	20.1265	-15.8581	-237.735	-19.4988	-30.6363	-240.842	9.56339	-30.1666	-241.528	10.7099	-2.57945	-219.873	-33.1127	-19.8607	-223.194	-31.4755	-38.0232	-218.305	-30.7961	-58.289	-240.03	-39.4332	16.3468	-242.042	-32.8553	41.726	-264.781	-29.4133	29.7804	
5	0.0416667	-277.018	-0.0884119	30.8324	-285.308	12.1995	7.57112	-287.061	14.8672	-17.9457	-277.987	18.6433	-40.1008	-281.531	-14.4555	-26.9429	-265.895	10.6025	-33.8496	-263.753	15.0386	-6.45461	-257.29	-19.3887	-36.1725	-253.38	7.8864	-42.8665	-247.159	18.4754	-13.6353	-236.659	-19.3514	-30.599	-237.275	9.50554	-29.8214	-239.326	12.367	-4.80721	-221.767	-33.2258	-19.0819	-222.307	-31.0456	-35.8744	-217.443	-27.77	-56.9329	-241.995	-37.0004	19.9971	-238.752	-31.9618	43.3937	-267.229	-28.0667	31.4423	
6	0.05	-279.489	1.51191	30.7822	-286.734	14.6163	5.67185	-284.894	18.3466	-14.4034	-276.851	19.2109	-37.793	-276.824	-12.4916	-31.7477	-270.514	10.6126	-36.2339	-261.154	14.7492	-7.81556	-256.251	-18.6158	-37.027	-253.687	6.73806	-44.4834	-248.683	20.4383	-12.5595	-241.279	-19.7222	-28.9519	-237.884	7.69411	-32.1508	-243.289	11.4692	-2.18513	-219.258	-32.181	-19.3676	-219.23	-29.4731	-41.441	-217.377	-27.2183	-58.7522	-242.515	-34.0313	19.5402	-237.376	-31.4453	44.6867	-264.509	-29.5635	32.5399	
7	0.0583333	-278.722	3.73408	34.8133	-285.826	16.6762	8.14088	-288.758	19.3032	-18.9823	-278.646	21.9587	-40.9549	-278.834	-12.0035	-31.6953	-269.098	14.5158	-34.6516	-259.152	17.0556	-9.71773	-258.445	-17.5489	-37.4637	-252.704	7.42461	-45.3019	-251.936	21.8345	-12.976	-241.588	-18.2687	-30.9714	-235.424	8.91279	-32.3116	-239.835	13.1012	-5.9408	-219.847	-32.4297	-22.2649	-220.439	-29.291	-38.5128	-218.027	-24.9403	-62.0654	-237.628	-35.0053	18.597	-237.963	-31.0258	42.1659	-267.859	-28.6556	31.3931	
8	0.0666667	-278.295	4.38865	31.8065	-285.588	15.0762	5.47604	-285.414	16.3972	-16.7863	-272.457	15.876	-40.9436	-280.137	-11.9165	-30.2666	-268.668	15.8095	-37.8402	-262.79	22.1394	-8.5521	-260.304	-18.9743	-35.64	-250.328	9.66263	-46.7435	-248.885	24.2373	-19.5748	-239.991	-16.7133	-33.4337	-236.313	9.91755	-34.2564	-243.611	12.8585	-5.526	-220.074	-30.5376	-18.4921	-220.878	-28.5178	-38.1653	-217.409	-25.2353	-60.8247	-240.853	-33.0842	16.1158	-237.061	-28.9098	43.8179	-265.574	-25.4566	30.7359	
